<svg><defs><font horiz-adv-x="828"><font-face ascent="750" bbox="-187 -230 1283 973" cap-height="720" descent="-250" panose-1="2 0 0 0 0 0 0 0 0 0" underline-position="-50" underline-thickness="50" unicode-range="U+0020-20AC" x-height="578"/><missing-glyph/><glyph glyph-name="space" horiz-adv-x="322" unicode="&#x20;"/><glyph glyph-name="space" horiz-adv-x="322" unicode="&#xa0;"/><glyph d="M774 438h409v-156h-409v-126h509v-156h-664v232h-408v-232h-157v572q0 31 11.5 58t32 47 47.5 31.5 57 11.5h1081v-156h-509v-126zM619 564h-408v-176h408v176z" glyph-name="AE" horiz-adv-x="1375" unicode="&#xc6;"/><glyph d="M629 720q31 0 58-11.5t47-31.5 32-47 12-58v-572h-157v232h-408v-232h-155v572q0 31 11.5 58t31.5 47 47 31.5 58 11.5h423zM621 388v176h-408v-176h408zM385 972h157l-51-203h-157z" glyph-name="Aacute" horiz-adv-x="836" unicode="&#xc1;"/><glyph d="M629 720q31 0 58-11.5t47-31.5 32-47 12-58v-572h-157v232h-408v-232h-155v572q0 31 11.5 58t31.5 47 47 31.5 58 11.5h423zM621 388v176h-408v-176h408zM266 769l110 184h100l110-184h-134l-28 44-25-44h-133z" glyph-name="Acircumflex" horiz-adv-x="836" unicode="&#xc2;"/><glyph d="M629 720q31 0 58-11.5t47-31.5 32-47 12-58v-572h-157v232h-408v-232h-155v572q0 31 11.5 58t31.5 47 47 31.5 58 11.5h423zM621 388v176h-408v-176h408zM606 770h-154v154h154v-154zM392 770h-153v154h153v-154z" glyph-name="Adieresis" horiz-adv-x="836" unicode="&#xc4;"/><glyph d="M629 720q31 0 58-11.5t47-31.5 32-47 12-58v-572h-157v232h-408v-232h-155v572q0 31 11.5 58t31.5 47 47 31.5 58 11.5h423zM621 388v176h-408v-176h408zM502 770h-157l-51 203h157z" glyph-name="Agrave" horiz-adv-x="836" unicode="&#xc0;"/><glyph d="M428 972q32 0 54-22.5t22-53.5v-49q0-31-22-53.5t-54-22.5h-51q-32 0-54.5 22.5t-22.5 53.5v49q0 31 22.5 53.5t54.5 22.5h51zM377 840h51v54h-51v-54zM629 720q31 0 58-11.5t47-31.5 32-47 12-58v-572h-157v232h-408v-232h-155v572q0 31 11.5 58t31.5 47 47 31.5 58 11.5h423zM621 388v176h-408v-176h408z" glyph-name="Aring" horiz-adv-x="836" unicode="&#xc5;"/><glyph d="M629 720q31 0 58-11.5t47-31.5 32-47 12-58v-572h-157v232h-408v-232h-155v572q0 31 11.5 58t31.5 47 47 31.5 58 11.5h423zM621 388v176h-408v-176h408zM481 889q17 0 39.5 7.5t56.5 29.5v-126q-23-10-48-18t-51-8q-27 0-50 9.5t-44.5 21.5-42.5 21.5-44 9.5h-11-13.5t-17.5-3-23-10.5-30-22.5v124q23 9 47.5 18t47.5 9q26 0 48.5-8.5t44-19 43.5-21 48-13.5z" glyph-name="Atilde" horiz-adv-x="836" unicode="&#xc3;"/><glyph d="M751 437q0-28-7-46 15-19 25-43.5t10-50.5v-149q0-31-12-58t-32-47-47-31.5-58-11.5h-571v720h544q30 0 57-11.5t47.5-31.5 32-47 11.5-58v-135zM214 156h408v132h-408v-132zM214 444h380v120h-380v-120z" glyph-name="B" horiz-adv-x="832" unicode="&#x42;"/><glyph d="M211 564v-408h563v-156h-570q-31 0-58 11.5t-47 31.5-31.5 47-11.5 58v424q0 31 11.5 58t31.5 47 47 31.5 58 11.5h570v-156h-563z" glyph-name="C" horiz-adv-x="822" unicode="&#x43;"/><glyph d="M211 564v-408h563v-156h-243l-47-156h-157l47 156h-170q-31 0-58 11.5t-47 31.5-31.5 47-11.5 58v424q0 31 11.5 58t31.5 47 47 31.5 58 11.5h570v-156h-563z" glyph-name="Ccedilla" horiz-adv-x="822" unicode="&#xc7;"/><glyph d="M629 720q31 0 58-11.5t47-31.5 32-47 12-58v-424q0-31-12-58t-32-47-47-31.5-58-11.5h-571v720h571zM213 156h408v408h-408v-408z" glyph-name="D" horiz-adv-x="834" unicode="&#x44;"/><glyph d="M723 564h-508v-126h409v-156h-409v-126h508v-156h-665v720h665v-156z" glyph-name="E" horiz-adv-x="766" unicode="&#x45;"/><glyph d="M723 564h-508v-126h409v-156h-409v-126h508v-156h-665v720h665v-156zM360 973h157l-51-203h-157z" glyph-name="Eacute" horiz-adv-x="766" unicode="&#xc9;"/><glyph d="M723 564h-508v-126h409v-156h-409v-126h508v-156h-665v720h665v-156zM231 769l110 184h100l110-184h-134l-28 44-25-44h-133z" glyph-name="Ecircumflex" horiz-adv-x="766" unicode="&#xca;"/><glyph d="M723 564h-508v-126h409v-156h-409v-126h508v-156h-665v720h665v-156zM581 770h-154v154h154v-154zM367 770h-153v154h153v-154z" glyph-name="Edieresis" horiz-adv-x="766" unicode="&#xcb;"/><glyph d="M723 564h-508v-126h409v-156h-409v-126h508v-156h-665v720h665v-156zM487 770h-157l-51 203h157z" glyph-name="Egrave" horiz-adv-x="766" unicode="&#xc8;"/><glyph d="M278 153h461v-153h-469q-30 0-56.5 11.5t-46 31.5-31 46-11.5 56v42h-90v153h90v35h-90v153h90v47q0 30 11.5 56.5t31 46 46 31 56.5 11.5h469v-153h-461v-39h363v-153h-363v-35h363v-153h-363v-34z" glyph-name="Euro" horiz-adv-x="799" unicode="&#x20ac;"/><glyph d="M723 720v-156h-508v-126h409v-156h-409v-282h-157v720h665z" glyph-name="F" horiz-adv-x="723" unicode="&#x46;"/><glyph d="M776 504h-157v60h-408v-408h408v108h-156v156h313v-272q0-31-12-58t-32-47-47-31.5-58-11.5h-423q-31 0-58 11.5t-47 31.5-31.5 47-11.5 58v424q0 31 11.5 58t31.5 47 47 31.5 58 11.5h423q31 0 58-11.5t47-31.5 32-47 12-58v-68z" glyph-name="G" horiz-adv-x="830" unicode="&#x47;"/><glyph d="M792 720v-720h-155v282h-425v-282h-155v720h155v-282h425v282h155z" glyph-name="H" horiz-adv-x="851" unicode="&#x48;"/><glyph d="M57 720h156v-720h-156v720z" glyph-name="I" horiz-adv-x="220" unicode="&#x49;"/><glyph d="M43 720h156v-720h-156v720zM87 973h157l-51-203h-157z" glyph-name="Iacute" horiz-adv-x="220" unicode="&#xcd;"/><glyph d="M62 720h156v-720h-156v720zM-11 769l110 184h100l110-184h-134l-28 44-25-44h-133z" glyph-name="Icircumflex" horiz-adv-x="220" unicode="&#xce;"/><glyph d="M74 720h156v-720h-156v720zM339 770h-154v154h154v-154zM125 770h-153v154h153v-154z" glyph-name="Idieresis" horiz-adv-x="220" unicode="&#xcf;"/><glyph d="M95 720h156v-720h-156v720zM244 770h-157l-51 203h157z" glyph-name="Igrave" horiz-adv-x="220" unicode="&#xcc;"/><glyph d="M159 156h408v564h157v-572q0-31-11.5-58t-32-47-47.5-31.5-57-11.5h-424q-31 0-58 11.5t-47 31.5-31.5 47-11.5 58v93h155v-85z" glyph-name="J" horiz-adv-x="780" unicode="&#x4a;"/><glyph d="M752 720v-54l-257-306q63-76 128.5-153.5t128.5-152.5v-54h-162l-236 282h-141v-282h-156v720h156v-282h141q23 26 45 53t45 54l146 175h162z" glyph-name="K" horiz-adv-x="797" unicode="&#x4b;"/><glyph d="M57 721h155v-565h565v-156h-720v721z" glyph-name="L" horiz-adv-x="779" unicode="&#x4c;"/><glyph d="M703 720h161v-720h-156v483q-61-72-124.5-148.5t-123.5-147.5l-249 295v-482h-155v720h160l244-291z" glyph-name="M" horiz-adv-x="928" unicode="&#x4d;"/><glyph d="M619 720h157v-720h-160l-405 482v-482h-155v720h160l403-480v480z" glyph-name="N" horiz-adv-x="832" unicode="&#x4e;"/><glyph d="M619 720h157v-720h-160l-405 482v-482h-155v720h160l403-480v480zM499 889q17 0 39.5 7.5t56.5 29.5v-126q-23-10-48-18t-51-8q-27 0-50 9.5t-44.5 21.5-42.5 21.5-44 9.5h-11-13.5t-17.5-3-23-10.5-30-22.5v124q23 9 47.5 18t47.5 9q26 0 48.5-8.5t44-19 43.5-21 48-13.5z" glyph-name="Ntilde" horiz-adv-x="832" unicode="&#xd1;"/><glyph d="M626 720q30 0 57-11.5t47.5-31.5 32-47 11.5-58v-424q0-31-11.5-58t-32-47-47.5-31.5-57-11.5h-424q-31 0-58 11.5t-47 31.5-31.5 47-11.5 58v424q0 31 11.5 58t31.5 47 47 31.5 58 11.5h424zM209 156h408v408h-408v-408z" glyph-name="O" unicode="&#x4f;"/><glyph d="M773 438h409v-156h-409v-126h509v-156h-1081q-30 0-57 11.5t-47.5 31.5-32 47-11.5 58v424q0 31 11.5 58t32 47 47.5 31.5 57 11.5h1081v-156h-509v-126zM210 156h408v408h-408v-408z" glyph-name="OE" horiz-adv-x="1374" unicode="&#x152;"/><glyph d="M626 720q30 0 57-11.5t47.5-31.5 32-47 11.5-58v-424q0-31-11.5-58t-32-47-47.5-31.5-57-11.5h-424q-31 0-58 11.5t-47 31.5-31.5 47-11.5 58v424q0 31 11.5 58t31.5 47 47 31.5 58 11.5h424zM209 156h408v408h-408v-408zM391 973h157l-51-203h-157z" glyph-name="Oacute" unicode="&#xd3;"/><glyph d="M626 720q30 0 57-11.5t47.5-31.5 32-47 11.5-58v-424q0-31-11.5-58t-32-47-47.5-31.5-57-11.5h-424q-31 0-58 11.5t-47 31.5-31.5 47-11.5 58v424q0 31 11.5 58t31.5 47 47 31.5 58 11.5h424zM209 156h408v408h-408v-408zM262 769l110 184h100l110-184h-134l-28 44-25-44h-133z" glyph-name="Ocircumflex" unicode="&#xd4;"/><glyph d="M626 720q30 0 57-11.5t47.5-31.5 32-47 11.5-58v-424q0-31-11.5-58t-32-47-47.5-31.5-57-11.5h-424q-31 0-58 11.5t-47 31.5-31.5 47-11.5 58v424q0 31 11.5 58t31.5 47 47 31.5 58 11.5h424zM209 156h408v408h-408v-408zM602 770h-154v154h154v-154zM388 770h-153v154h153v-154z" glyph-name="Odieresis" unicode="&#xd6;"/><glyph d="M626 720q30 0 57-11.5t47.5-31.5 32-47 11.5-58v-424q0-31-11.5-58t-32-47-47.5-31.5-57-11.5h-424q-31 0-58 11.5t-47 31.5-31.5 47-11.5 58v424q0 31 11.5 58t31.5 47 47 31.5 58 11.5h424zM209 156h408v408h-408v-408zM508 770h-157l-51 203h157z" glyph-name="Ograve" unicode="&#xd2;"/><glyph d="M626 720q30 0 57-11.5t47.5-31.5 32-47 11.5-58v-424q0-31-11.5-58t-32-47-47.5-31.5-57-11.5h-424q-31 0-58 11.5t-47 31.5-31.5 47-11.5 58v424q0 31 11.5 58t31.5 47 47 31.5 58 11.5h424zM209 156h408v408h-408v-408zM487 889q17 0 39.5 7.5t56.5 29.5v-126q-23-10-48-18t-51-8q-27 0-50 9.5t-44.5 21.5-42.5 21.5-44 9.5h-11-13.5t-17.5-3-23-10.5-30-22.5v124q23 9 47.5 18t47.5 9q26 0 48.5-8.5t44-19 43.5-21 48-13.5z" glyph-name="Otilde" unicode="&#xd5;"/><glyph d="M627 719q31 0 58-11.5t47-32 32-47.5 12-57v-186q0-30-12-57t-32-47.5-47-32-58-11.5l-416-1q3 0 3-6h-1q-2 0-2 1v-231h-155v719h571zM211 393h408v171h-408v-171z" glyph-name="P" horiz-adv-x="791" unicode="&#x50;"/><glyph d="M774 156h82v-156h-654q-31 0-58 11.5t-47 31.5-31.5 47-11.5 58v424q0 31 11.5 58t31.5 47 47 31.5 58 11.5h423q31 0 58-11.5t47-31.5 32-47 12-58v-416zM209 156h408v408h-408v-408z" glyph-name="Q" horiz-adv-x="884" unicode="&#x51;"/><glyph d="M775 385q0-30-12-57t-32-47.5-47-32-58-11.5h-7q38-45 78-92t78-92v-53h-160l-199 237-206-1q3 0 3-6h-1q-2 0-2 1v-231h-155v719h571q31 0 58-11.5t47-32 32-47.5 12-57v-186zM210 393h408v171h-408v-171z" glyph-name="R" horiz-adv-x="825" unicode="&#x52;"/><glyph d="M771 505h-157v59h-408v-126h417q30 0 57-11.5t47.5-31.5 32-47 11.5-58v-142q0-31-11.5-58t-32-47-47.5-31.5-57-11.5h-424q-31 0-58 11.5t-47 31.5-31.5 47-11.5 58v67h155v-59h408v126h-415q-31 0-58 11.5t-47 31.5-31.5 47-11.5 58v142q0 31 11.5 58t31.5 47 47 31.5 58 11.5h424q30 0 57-11.5t47.5-31.5 32-47 11.5-58v-67z" glyph-name="S" horiz-adv-x="822" unicode="&#x53;"/><glyph d="M390 953l27-44 27 44h135l-110-184h-100l-110 184h131zM771 505h-157v59h-408v-126h417q30 0 57-11.5t47.5-31.5 32-47 11.5-58v-142q0-31-11.5-58t-32-47-47.5-31.5-57-11.5h-424q-31 0-58 11.5t-47 31.5-31.5 47-11.5 58v67h155v-59h408v126h-415q-31 0-58 11.5t-47 31.5-31.5 47-11.5 58v142q0 31 11.5 58t31.5 47 47 31.5 58 11.5h424q30 0 57-11.5t47.5-31.5 32-47 11.5-58v-67z" glyph-name="Scaron" horiz-adv-x="822" unicode="&#x160;"/><glyph d="M740 720v-156h-282v-564h-156v564h-282v156h720z" glyph-name="T" horiz-adv-x="759" unicode="&#x54;"/><glyph d="M209 156h408v564h157v-572q0-31-11.5-58t-32-47-47.5-31.5-57-11.5h-424q-31 0-58 11.5t-47 31.5-31.5 47-11.5 58v572h155v-564z" glyph-name="U" unicode="&#x55;"/><glyph d="M209 156h408v564h157v-572q0-31-11.5-58t-32-47-47.5-31.5-57-11.5h-424q-31 0-58 11.5t-47 31.5-31.5 47-11.5 58v572h155v-564zM371 973h157l-51-203h-157z" glyph-name="Uacute" unicode="&#xda;"/><glyph d="M209 156h408v564h157v-572q0-31-11.5-58t-32-47-47.5-31.5-57-11.5h-424q-31 0-58 11.5t-47 31.5-31.5 47-11.5 58v572h155v-564zM262 769l110 184h100l110-184h-134l-28 44-25-44h-133z" glyph-name="Ucircumflex" unicode="&#xdb;"/><glyph d="M209 156h408v564h157v-572q0-31-11.5-58t-32-47-47.5-31.5-57-11.5h-424q-31 0-58 11.5t-47 31.5-31.5 47-11.5 58v572h155v-564zM602 770h-154v154h154v-154zM388 770h-153v154h153v-154z" glyph-name="Udieresis" unicode="&#xdc;"/><glyph d="M209 156h408v564h157v-572q0-31-11.5-58t-32-47-47.5-31.5-57-11.5h-424q-31 0-58 11.5t-47 31.5-31.5 47-11.5 58v572h155v-564zM508 770h-157l-51 203h157z" glyph-name="Ugrave" unicode="&#xd9;"/><glyph d="M819 720h179l-417-720h-129l-417 720h180l302-523z" glyph-name="V" horiz-adv-x="1003" unicode="&#x56;"/><glyph d="M1136 720l-262-720h-119l-170 463-64-176q-26-70-53.5-144t-51.5-143h-119l-262 720h165l157-429 25 67q32 88 66 181t66 181h143l158-429 25 67q32 88 66 181t66 181h164z" glyph-name="W" horiz-adv-x="1179" unicode="&#x57;"/><glyph d="M766 720v-53l-258-307 258-306v-54h-161l-200 236q-21-25-46-54.5t-51-60.5l-52-62t-49-59h-161v53l257 307q-63 76-128 154t-129 153v53h161l200-237q20 25 45 55t51 60.5 52.5 61.5 49.5 60h161z" glyph-name="X" horiz-adv-x="812" unicode="&#x58;"/><glyph d="M840 720l-334-452v-268h-156v269l-131 176q-24 31-50.5 67.5l-53 73t-52 71-46.5 63.5h185l226-284q55 69 113 142t112 142h187z" glyph-name="Y" horiz-adv-x="806" unicode="&#x59;"/><glyph d="M840 720l-334-452v-268h-156v269l-131 176q-24 31-50.5 67.5l-53 73t-52 71-46.5 63.5h185l226-284q55 69 113 142t112 142h187zM380 973h157l-51-203h-157z" glyph-name="Yacute" horiz-adv-x="806" unicode="&#xdd;"/><glyph d="M840 720l-334-452v-268h-156v269l-131 176q-24 31-50.5 67.5l-53 73t-52 71-46.5 63.5h185l226-284q55 69 113 142t112 142h187zM611 770h-154v154h154v-154zM397 770h-153v154h153v-154z" glyph-name="Ydieresis" horiz-adv-x="806" unicode="&#x178;"/><glyph d="M51 720h720v-159l-482-405h482v-156h-720v159l482 405h-482v156z" glyph-name="Z" horiz-adv-x="821" unicode="&#x5a;"/><glyph d="M389 953l27-44 27 44h135l-110-184h-100l-110 184h131zM51 720h720v-159l-482-405h482v-156h-720v159l482 405h-482v156z" glyph-name="Zcaron" horiz-adv-x="821" unicode="&#x17d;"/><glyph d="M495 580q30 0 56.5-11.5t46-31.5 31-46 11.5-56v-435h-443q-30 0-56.5 11.5t-46 31.5-31 46-11.5 56v222h435v60h-435v153h443zM487 233h-282v-80h282v80z" glyph-name="a" horiz-adv-x="694" unicode="&#x61;"/><glyph d="M495 580q30 0 56.5-11.5t46-31.5 31-46 11.5-56v-435h-443q-30 0-56.5 11.5t-46 31.5-31 46-11.5 56v222h435v60h-435v153h443zM487 233h-282v-80h282v80zM329 842h157l-51-203h-157z" glyph-name="aacute" horiz-adv-x="725" unicode="&#xe1;"/><glyph d="M495 580q30 0 56.5-11.5t46-31.5 31-46 11.5-56v-435h-443q-30 0-56.5 11.5t-46 31.5-31 46-11.5 56v222h435v60h-435v153h443zM487 233h-282v-80h282v80zM210 639l110 184h100l110-184h-134l-28 44-25-44h-133z" glyph-name="acircumflex" horiz-adv-x="725" unicode="&#xe2;"/><glyph d="M84 950h157l-51-203h-157z" glyph-name="acute" horiz-adv-x="213" unicode="&#xb4;"/><glyph d="M495 580q30 0 56.5-11.5t46-31.5 31-46 11.5-56v-435h-443q-30 0-56.5 11.5t-46 31.5-31 46-11.5 56v222h435v60h-435v153h443zM487 233h-282v-80h282v80zM540 639h-154v154h154v-154zM326 639h-153v154h153v-154z" glyph-name="adieresis" horiz-adv-x="725" unicode="&#xe4;"/><glyph d="M933 580q30 0 56-11.5t45.5-31.5 31-46 11.5-56v-222h-435v-60h435v-153h-879q-30 0-56.5 11.5t-46 31.5-31 46-11.5 56v222h436v60h-436v153h880zM489 233h-283v-80h283v80zM924 347v80h-282v-80h282z" glyph-name="ae" horiz-adv-x="1178" unicode="&#xe6;"/><glyph d="M495 580q30 0 56.5-11.5t46-31.5 31-46 11.5-56v-435h-443q-30 0-56.5 11.5t-46 31.5-31 46-11.5 56v222h435v60h-435v153h443zM487 233h-282v-80h282v80zM466 639h-157l-51 203h157z" glyph-name="agrave" horiz-adv-x="725" unicode="&#xe0;"/><glyph d="M874 140v-158l-140 80q-20-28-52-45t-68-17h-416q-30 0-56.5 11.5t-46 31.5-31 46-11.5 56v185q0 20 10 44.5t33 39.5q-5 13-6 26t-1 27v107q0 30 11.5 56.5t31.5 46 46 31 56 11.5h353q27 0 51-9t43.5-25 32.5-38 18-47v-88h-153v53h-337v-108l364-183v95h153v-161zM432 205q-54 27-112.5 57t-113.5 57v-166h330q-26 14-52 26t-52 26z" glyph-name="ampersand" horiz-adv-x="938" unicode="&#x26;"/><glyph d="M332 840q32 0 54-22.5t22-53.5v-49q0-31-22-53.5t-54-22.5h-51q-32 0-54.5 22.5t-22.5 53.5v49q0 31 22.5 53.5t54.5 22.5h51zM281 708h51v54h-51v-54zM495 580q30 0 56.5-11.5t46-31.5 31-46 11.5-56v-435h-443q-30 0-56.5 11.5t-46 31.5-31 46-11.5 56v222h435v60h-435v153h443zM487 233h-282v-80h282v80z" glyph-name="aring" horiz-adv-x="725" unicode="&#xe5;"/><glyph d="M303 325q17 0 39.5 7t56.5 29v-126q-23-10-48-17.5t-51-7.5q-27 0-50 9.5t-45 21-44.5 21-47.5 9.5q-12 0-33-6t-56-33v132q23 10 47.5 16.5t47.5 6.5q26 0 48.5-8t44-18.5 44-21 47.5-14.5z" glyph-name="asciitilde" horiz-adv-x="404" unicode="&#x7e;"/><glyph d="M492 479l-110-35 69-93-123-90-71 93-66-93-125 90 69 93-110 35 47 148 109-37v116h154v-116q5 1 11.5 3.5t18 6 30.5 10 50 17.5z" glyph-name="asterisk" horiz-adv-x="516" unicode="&#x2a;"/><glyph d="M442 519q60 0 92.5-32.5t32.5-92.5v-63h44v236h-401v-414h554v-153h-561q-30 0-56.5 11.5t-46.5 31.5-31.5 46-11.5 56v430q0 30 11.5 56.5t31.5 46 46.5 31 56.5 11.5h415q30 0 56.5-11.5t46.5-31 31.5-46 11.5-56.5v-359h-384q-60 0-93 32t-33 93v53q0 60 33 92.5t93 32.5h62zM461 331v82h-101v-82h101z" glyph-name="at" horiz-adv-x="831" unicode="&#x40;"/><glyph d="M495 580q30 0 56.5-11.5t46-31.5 31-46 11.5-56v-435h-443q-30 0-56.5 11.5t-46 31.5-31 46-11.5 56v222h435v60h-435v153h443zM487 233h-282v-80h282v80zM415 757q17 0 39.5 7.5t56.5 29.5v-126q-23-10-48-18t-51-8q-27 0-50 9.5t-44.5 21.5-42.5 21.5-44 9.5h-11-13.5t-17.5-3-23-10.5-30-22.5v124q23 9 47.5 18t47.5 9q26 0 48.5-8.5t44-19 43.5-21 48-13.5z" glyph-name="atilde" horiz-adv-x="725" unicode="&#xe3;"/><glyph d="M497 580q30 0 56.5-11.5t46-31.5 31-46 11.5-56v-290q0-30-11.5-56t-31-46-46-31.5-56.5-11.5h-443v770h153v-190h290zM207 153h282v274h-282v-274z" glyph-name="b" horiz-adv-x="667" unicode="&#x62;"/><glyph d="M60 720l461-566v-154h-55l-461 566v154h55z" glyph-name="backslash" horiz-adv-x="520" unicode="&#x5c;"/><glyph d="M54 804h153v-903h-153v903z" glyph-name="bar" horiz-adv-x="214" unicode="&#x7c;"/><glyph d="M216 153h58v-153h-65q-30 0-57 11.5t-46.5 31.5-31 46-11.5 56v135l-16 10h1q-5 2-12.5 6.5t-12.5 6.5v131l40 22v119q0 30 11.5 56.5t31 46 46.5 31 57 11.5h65v-153h-58v-161l-45-38 23-20v1l22-18v-178z" glyph-name="braceleft" horiz-adv-x="289" unicode="&#x7b;"/><glyph d="M51 153h58v177l45 38-45 38v161h-58v153h65q30 0 56.5-11.5t46.5-31 31.5-46 11.5-56.5v-118l40-24v-128l-40-25v-135q0-30-11.5-56t-31.5-46-46.5-31.5-56.5-11.5h-65v153z" glyph-name="braceright" horiz-adv-x="289" unicode="&#x7d;"/><glyph d="M54 720h211v-153h-58v-414h58v-153h-211v720z" glyph-name="bracketleft" horiz-adv-x="275" unicode="&#x5b;"/><glyph d="M51 720h211v-720h-211v153h57v414h-57v153z" glyph-name="bracketright" horiz-adv-x="276" unicode="&#x5d;"/><glyph d="M195 428q67 0 67-66v-18q0-65-67-65h-21q-66 0-66 65v18q0 66 66 66h21z" glyph-name="bullet" horiz-adv-x="371" unicode="&#x2022;"/><glyph d="M204 427v-274h435v-153h-443q-30 0-56 11.5t-46 31.5-31.5 46-11.5 56v290q0 30 11.5 56t31.5 46 46 31.5 56 11.5h442v-153h-434z" glyph-name="c" horiz-adv-x="695" unicode="&#x63;"/><glyph d="M639 153v-153h-229q-8-34-19.5-65t-19.5-63h-97q8 34 19.5 65t19.5 63h-117q-30 0-56 11.5t-46 31.5-31.5 46-11.5 56v290q0 30 11.5 56t31.5 46 46 31.5 56 11.5h442v-153h-434v-274h435z" glyph-name="ccedilla" horiz-adv-x="693" unicode="&#xe7;"/><glyph d="M84 56h157l-51-202h-157z" glyph-name="cedilla" horiz-adv-x="213" unicode="&#xb8;"/><glyph d="M445 435v-282h176v-153h-176v-99h-154v99h-112q-30 0-56.5 11.5t-46.5 31.5-31.5 46-11.5 56v299q0 30 11.5 56.5t31.5 46.5 46.5 31.5 56.5 11.5h112v115h154v-115h176v-155h-176zM291 435h-105v-282h105v282z" glyph-name="cent" horiz-adv-x="636" unicode="&#xa2;"/><glyph d="M28 746l110 184h100l110-184h-134l-28 44-25-44h-133z" glyph-name="circumflex" horiz-adv-x="300" unicode="&#x2c6;"/><glyph d="M207 153v-153h-153v153h153zM207 426h-153v154h153v-154z" glyph-name="colon" horiz-adv-x="247" unicode="&#x3a;"/><glyph d="M207 142v-126q0-27-11.5-52t-32-44.5-48.5-33-61-19.5v275h153z" glyph-name="comma" horiz-adv-x="243" unicode="&#x2c;"/><glyph d="M612 770v-770h-444q-30 0-56.5 11.5t-46 31.5-31 46-11.5 56v290q0 30 11.5 56t31 46 46 31.5 56.5 11.5h291v190h153zM177 153h282v274h-282v-274z" glyph-name="d" horiz-adv-x="667" unicode="&#x64;"/><glyph d="M272 706q30 0 56-11.5t46-31 31.5-46 11.5-56.5v-72q0-30-11.5-56.5t-31.5-46.5-46-31.5-56-11.5h-81q-30 0-56.5 11.5t-46.5 31.5-31.5 46.5-11.5 56.5v72q0 30 11.5 56.5t31.5 46 46.5 31 56.5 11.5h81zM180 479h102v92h-102v-92z" glyph-name="degree" horiz-adv-x="439" unicode="&#xb0;"/><glyph d="M421 747h-154v154h154v-154zM207 747h-153v154h153v-154z" glyph-name="dieresis" horiz-adv-x="385" unicode="&#xa8;"/><glyph d="M497 240h-490v153h490v-153zM336 153v-153h-153v153h153zM336 462h-153v154h153v-154z" glyph-name="divide" horiz-adv-x="519" unicode="&#xf7;"/><glyph d="M740 509h-153v58h-123v-134h131q30 0 56.5-11.5t46-31.5 31-46.5 11.5-56.5v-142q0-30-11.5-56t-31-46-46-31.5-56.5-11.5h-131v-98h-154v98h-131q-30 0-56.5 11.5t-46 31.5-31 46-11.5 56v66h153v-58h123v127h-131q-30 0-56.5 11.5t-46 31-31 46-11.5 56.5v150q0 30 11.5 56.5t31 46 46 31 56.5 11.5h131v98h154v-98h131q30 0 56.5-11.5t46-31 31-46 11.5-56.5v-66zM310 567h-123v-134h123v134zM464 153h123v127h-123v-127z" glyph-name="dollar" horiz-adv-x="788" unicode="&#x24;"/><glyph d="M494 580q30 0 56.5-11.5t46-31.5 31-46 11.5-56v-222h-435v-60h435v-153h-443q-30 0-56 11.5t-46 31.5-31.5 46-11.5 56v290q0 30 11.5 56t31.5 46 46 31.5 56 11.5h298zM486 347v80h-282v-80h282z" glyph-name="e" horiz-adv-x="692" unicode="&#x65;"/><glyph d="M494 580q30 0 56.5-11.5t46-31.5 31-46 11.5-56v-222h-435v-60h435v-153h-443q-30 0-56 11.5t-46 31.5-31.5 46-11.5 56v290q0 30 11.5 56t31.5 46 46 31.5 56 11.5h298zM486 347v80h-282v-80h282zM316 843h157l-51-203h-157z" glyph-name="eacute" horiz-adv-x="638" unicode="&#xe9;"/><glyph d="M494 580q30 0 56.5-11.5t46-31.5 31-46 11.5-56v-222h-435v-60h435v-153h-443q-30 0-56 11.5t-46 31.5-31.5 46-11.5 56v290q0 30 11.5 56t31.5 46 46 31.5 56 11.5h298zM486 347v80h-282v-80h282zM197 639l110 184h100l110-184h-134l-28 44-25-44h-133z" glyph-name="ecircumflex" horiz-adv-x="638" unicode="&#xea;"/><glyph d="M494 580q30 0 56.5-11.5t46-31.5 31-46 11.5-56v-222h-435v-60h435v-153h-443q-30 0-56 11.5t-46 31.5-31.5 46-11.5 56v290q0 30 11.5 56t31.5 46 46 31.5 56 11.5h298zM486 347v80h-282v-80h282zM547 639h-154v154h154v-154zM333 639h-153v154h153v-154z" glyph-name="edieresis" horiz-adv-x="638" unicode="&#xeb;"/><glyph d="M494 580q30 0 56.5-11.5t46-31.5 31-46 11.5-56v-222h-435v-60h435v-153h-443q-30 0-56 11.5t-46 31.5-31.5 46-11.5 56v290q0 30 11.5 56t31.5 46 46 31.5 56 11.5h298zM486 347v80h-282v-80h282zM453 639h-157l-51 203h157z" glyph-name="egrave" horiz-adv-x="638" unicode="&#xe8;"/><glyph d="M764 434q0-17-4.5-35t-12.5-34q17-31 17-68v-152q0-30-11.5-56t-31.5-46-46.5-31.5-56.5-11.5h-415q-30 0-56.5 11.5t-46.5 31.5-31.5 46-11.5 56v152q0 17 4.5 34.5t12.5 33.5q-8 16-12.5 33.5t-4.5 35.5v141q0 30 11.5 56.5t31.5 46 46.5 31 56.5 11.5h415q27 0 51.5-9t44-25 32.5-38 18-47v-167zM210 153h401v135h-401v-135zM210 432h401v134h-401v-134z" glyph-name="eight" horiz-adv-x="834" unicode="&#x38;"/><glyph d="M400 0h-154v153h154v-153zM591 0h-153v153h153v-153zM208 0h-154v153h154v-153z" glyph-name="ellipsis" horiz-adv-x="574" unicode="&#x2026;"/><glyph d="M756 218h-702v153h702v-153z" glyph-name="emdash" horiz-adv-x="822" unicode="&#x2014;"/><glyph d="M652 218h-598v153h598v-153z" glyph-name="endash" horiz-adv-x="708" unicode="&#x2013;"/><glyph d="M585 129h-526v153h526v-153zM585 331h-526v153h526v-153z" glyph-name="equal" horiz-adv-x="638" unicode="&#x3d;"/><glyph d="M58 0v153h153v-153h-153zM58 720h153v-519h-153v519z" glyph-name="exclam" horiz-adv-x="220" unicode="&#x21;"/><glyph d="M206 553h-153v153h153v-153zM53 0v526h153v-526h-153z" glyph-name="exclamdown" horiz-adv-x="210" unicode="&#xa1;"/><glyph d="M206 616v-36h215v-153h-215v-427h-153v625q0 30 11.5 56t31 46 46.5 31.5 57 11.5h222v-154h-215z" glyph-name="f" horiz-adv-x="440" unicode="&#x66;"/><glyph d="M210 567v-125h408q30 0 56.5-11.5t46.5-31 31.5-46 11.5-56.5v-152q0-30-11.5-56t-31.5-46-46.5-31.5-56.5-11.5h-415q-30 0-56.5 11.5t-46.5 31.5-31.5 46-11.5 56v56h153v-48h401v135h-554v432h707v-153h-554z" glyph-name="five" horiz-adv-x="830" unicode="&#x35;"/><glyph d="M686 333v-154h-96v-179h-153v179h-431v137l447 404h137v-387h96zM255 333h182v148z" glyph-name="four" horiz-adv-x="730" unicode="&#x34;"/><glyph d="M630-84q0-30-11.5-56.5t-31-46-46-31-56.5-11.5h-352v154h344v75h-290q-30 0-56.5 11.5t-46.5 31.5-31.5 46-11.5 56v290q0 30 11.5 56t31.5 46 46.5 31.5 56.5 11.5h298q30 0 56.5-11.5t46-31.5 31-46 11.5-56v-519zM194 153h283v274h-283v-274z" glyph-name="g" horiz-adv-x="683" unicode="&#x67;"/><glyph d="M764 431q0-17-4.5-35t-12.5-34q17-31 17-68v-149q0-30-11.5-56t-31.5-46-46.5-31.5-56.5-11.5h-345v153h338v132h-338v144h338v123h-401v-552h-153v561q0 30 11.5 56.5t31.5 46 46.5 31 56.5 11.5h415q27 0 51.5-9t44-25 32.5-38 18-47v-156z" glyph-name="germandbls" horiz-adv-x="833" unicode="&#xdf;"/><glyph d="M240 747h-157l-51 203h157z" glyph-name="grave" horiz-adv-x="272" unicode="&#x60;"/><glyph d="M59 159l233 135-128 72q-26 14-53.5 31.5t-51.5 30.5v177l428-247v-129l-428-248v178z" glyph-name="greater" horiz-adv-x="475" unicode="&#x3e;"/><glyph d="M497 580q30 0 56-11.5t46-31.5 31.5-46 11.5-56v-435h-153v427h-282v-427h-153v770h153v-190h290z" glyph-name="h" horiz-adv-x="668" unicode="&#x68;"/><glyph d="M476 219h-417v153h417v-153z" glyph-name="hyphen" horiz-adv-x="517" unicode="&#x2d;"/><glyph d="M52 580h153v-580h-153v580zM205 770v-154h-153v154h153z" glyph-name="i" horiz-adv-x="229" unicode="&#x69;"/><glyph d="M52 580h153v-580h-153v580zM100 842h157l-51-203h-157z" glyph-name="iacute" horiz-adv-x="214" unicode="&#xed;"/><glyph d="M52 580h153v-580h-153v580zM-14 639l110 184h100l110-184h-134l-28 44-25-44h-133z" glyph-name="icircumflex" horiz-adv-x="214" unicode="&#xee;"/><glyph d="M55 580h153v-580h-153v580zM336 641h-154v154h154v-154zM122 641h-153v154h153v-154z" glyph-name="idieresis" horiz-adv-x="214" unicode="&#xef;"/><glyph d="M56 580h153v-580h-153v580zM225 640h-157l-51 203h157z" glyph-name="igrave" horiz-adv-x="214" unicode="&#xec;"/><glyph d="M211 770v-154h-153v154h153zM211-63q0-30-11.5-56.5t-31.5-46-46.5-31-56.5-11.5h-252v154h245v634h153v-643z" glyph-name="j" horiz-adv-x="239" unicode="&#x6a;"/><glyph d="M636 580v-52l-216-238 216-238v-52h-154l-197 213h-78v-213h-153v770h153v-403h78l197 213h154z" glyph-name="k" horiz-adv-x="646" unicode="&#x6b;"/><glyph d="M206 771v-618h117v-153h-126q-30 0-56 11.5t-46 31.5-31.5 46-11.5 56v626h154z" glyph-name="l" horiz-adv-x="337" unicode="&#x6c;"/><glyph d="M432 160v-177l-427 248v128l427 248v-176l-234-135z" glyph-name="less" horiz-adv-x="473" unicode="&#x3c;"/><glyph d="M752 580q30 0 56.5-11.5t46-31.5 31-46 11.5-56v-435h-152v427h-192v-427h-154v427h-192v-427h-153v580h698z" glyph-name="m" horiz-adv-x="978" unicode="&#x6d;"/><glyph d="M507 466l-130-166 130-168v-50h-159l-69 93q-15-23-34.5-46.5t-34.5-46.5h-157v50l129 168-129 166v50h158l68-94 69 94h159v-50z" glyph-name="multiply" horiz-adv-x="546" unicode="&#xd7;"/><glyph d="M497 580q30 0 56.5-11.5t46-31.5 31-46 11.5-56v-435h-153v427h-282v-427h-153v580h443z" glyph-name="n" horiz-adv-x="696" unicode="&#x6e;"/><glyph d="M200 0q-27 0-51.5 12t-44.5 32.5-33.5 48.5-19.5 60h557v128h-408q-30 0-56.5 11.5t-46.5 31.5-31.5 46.5-11.5 56.5v148q0 30 11.5 56.5t31.5 46 46.5 31 56.5 11.5h416q30 0 56.5-11.5t46-31 31-46 11.5-56.5v-430q0-30-11.5-56t-31-46-46-31.5-56.5-11.5h-416zM608 435v132h-400v-132h400z" glyph-name="nine" unicode="&#x39;"/><glyph d="M497 580q30 0 56.5-11.5t46-31.5 31-46 11.5-56v-435h-153v427h-282v-427h-153v580h443zM417 756q17 0 39.5 7.5t56.5 29.5v-126q-23-10-48-18t-51-8q-27 0-50 9.5t-44.5 21.5-42.5 21.5-44 9.5h-11-13.5t-17.5-3-23-10.5-30-22.5v124q23 9 47.5 18t47.5 9q26 0 48.5-8.5t44-19 43.5-21 48-13.5z" glyph-name="ntilde" horiz-adv-x="708" unicode="&#xf1;"/><glyph d="M750 417h-115l-34-106h121v-153h-171q-11-36-22.5-79t-22.5-79h-155l48 158h-140q-11-36-22-79t-22-79h-155l47 158h-75v153h121l34 106h-127v153h176q12 35 24.5 75.5t23.5 74.5h158l-51-150h138l48 150h157l-51-150h67v-153zM445 311l34 106h-136l-34-106h136z" glyph-name="numbersign" horiz-adv-x="797" unicode="&#x23;"/><glyph d="M494 580q30 0 56.5-11.5t46-31.5 31-46 11.5-56v-290q0-30-11.5-56t-31-46-46-31.5-56.5-11.5h-298q-30 0-56 11.5t-46 31.5-31.5 46-11.5 56v290q0 30 11.5 56t31.5 46 46 31.5 56 11.5h298zM204 153h282v274h-282v-274z" glyph-name="o" horiz-adv-x="692" unicode="&#x6f;"/><glyph d="M494 580q30 0 56.5-11.5t46-31.5 31-46 11.5-56v-290q0-30-11.5-56t-31-46-46-31.5-56.5-11.5h-298q-30 0-56 11.5t-46 31.5-31.5 46-11.5 56v290q0 30 11.5 56t31.5 46 46 31.5 56 11.5h298zM204 153h282v274h-282v-274zM313 843h157l-51-203h-157z" glyph-name="oacute" horiz-adv-x="692" unicode="&#xf3;"/><glyph d="M494 580q30 0 56.5-11.5t46-31.5 31-46 11.5-56v-290q0-30-11.5-56t-31-46-46-31.5-56.5-11.5h-298q-30 0-56 11.5t-46 31.5-31.5 46-11.5 56v290q0 30 11.5 56t31.5 46 46 31.5 56 11.5h298zM204 153h282v274h-282v-274zM194 639l110 184h100l110-184h-134l-28 44-25-44h-133z" glyph-name="ocircumflex" horiz-adv-x="692" unicode="&#xf4;"/><glyph d="M494 580q30 0 56.5-11.5t46-31.5 31-46 11.5-56v-290q0-30-11.5-56t-31-46-46-31.5-56.5-11.5h-298q-30 0-56 11.5t-46 31.5-31.5 46-11.5 56v290q0 30 11.5 56t31.5 46 46 31.5 56 11.5h298zM204 153h282v274h-282v-274zM534 641h-154v154h154v-154zM320 641h-153v154h153v-154z" glyph-name="odieresis" horiz-adv-x="692" unicode="&#xf6;"/><glyph d="M641 213v-60h435v-153h-878q-30 0-57 11.5t-46.5 31.5-31 46-11.5 56v290q0 30 11.5 56t31 46 46.5 31.5 57 11.5h734q30 0 56-11.5t45.5-31.5 31-46 11.5-56v-222h-435zM923 347v80h-282v-80h282zM205 153h283v274h-283v-274z" glyph-name="oe" horiz-adv-x="1177" unicode="&#x153;"/><glyph d="M494 580q30 0 56.5-11.5t46-31.5 31-46 11.5-56v-290q0-30-11.5-56t-31-46-46-31.5-56.5-11.5h-298q-30 0-56 11.5t-46 31.5-31.5 46-11.5 56v290q0 30 11.5 56t31.5 46 46 31.5 56 11.5h298zM204 153h282v274h-282v-274zM450 640h-157l-51 203h157z" glyph-name="ograve" horiz-adv-x="692" unicode="&#xf2;"/><glyph d="M231 720h159v-720h-153v487l-2-2h1l-32-39h-203z" glyph-name="one" horiz-adv-x="391" unicode="&#x31;"/><glyph d="M494 580q30 0 56.5-11.5t46-31.5 31-46 11.5-56v-290q0-30-11.5-56t-31-46-46-31.5-56.5-11.5h-298q-30 0-56 11.5t-46 31.5-31.5 46-11.5 56v290q0 30 11.5 56t31.5 46 46 31.5 56 11.5h298zM204 153h282v274h-282v-274zM419 756q17 0 39.5 7.5t56.5 29.5v-126q-23-10-48-18t-51-8q-27 0-50 9.5t-44.5 21.5-42.5 21.5-44 9.5h-11-13.5t-17.5-3-23-10.5-30-22.5v124q23 9 47.5 18t47.5 9q26 0 48.5-8.5t44-19 43.5-21 48-13.5z" glyph-name="otilde" horiz-adv-x="692" unicode="&#xf5;"/><glyph d="M497 580q30 0 56.5-11.5t46-31.5 31-46 11.5-56v-290q0-30-11.5-56t-31-46-46-31.5-56.5-11.5h-290v-230h-153v810h443zM207 153h282v274h-282v-274z" glyph-name="p" horiz-adv-x="664" unicode="&#x70;"/><glyph d="M497 580q30 0 56.5-11.5t46-31.5 31-46.5 11.5-55.5v-112q0-30-11.5-56t-31-46-46-31.5-56.5-11.5l-290-1q3 0 3-6h-1q-2 0-2 1v-172h-153v580h443zM207 332h282v95h-282v-95z" glyph-name="p.sc" horiz-adv-x="660"/><glyph d="M56 560q0 30 11.5 56.5t31.5 46.5 46.5 31.5 56.5 11.5h581v-706h-153v232h-66v-232h-154v232h-208q-30 0-56.5 11.5t-46.5 31.5-31.5 46.5-11.5 55.5v183zM209 552v-166h201v166h-201zM564 386h66v166h-66v-166z" glyph-name="paragraph" horiz-adv-x="833" unicode="&#xb6;"/><glyph d="M205 567v-414h58v-153h-66q-30 0-56.5 11.5t-46 31.5-31 46-11.5 56v430q0 30 11.5 56.5t31 46 46 31 56.5 11.5h66v-153h-58z" glyph-name="parenleft" horiz-adv-x="294" unicode="&#x28;"/><glyph d="M56 153h58v414h-58v153h67q30 0 56-11.5t46-31 31.5-46 11.5-56.5v-430q0-30-11.5-56t-31.5-46-46-31.5-56-11.5h-67v153z" glyph-name="parenright" horiz-adv-x="297" unicode="&#x29;"/><glyph d="M841 719v-156l-656-563h-51v157l656 562h51zM265 712q60 0 98-37.5t38-97.5v-72q0-30-10-55t-28-43-43-28-55-10h-81q-30 0-55 10t-43 28-28 43-10 55v72q0 60 38 97.5t98 37.5h81zM773 352q60 0 98-37.5t38-97.5v-72q0-30-10-55t-28-43-43-28-55-10h-81q-30 0-54.5 10t-42.5 28-28 43-10 55v72q0 30 10 55t28 42.5 42.5 27.5 54.5 10h81zM682 134h102v93h-102v-93zM173 495h102v92h-102v-92z" glyph-name="percent" horiz-adv-x="966" unicode="&#x25;"/><glyph d="M207 0h-153v153h153v-153z" glyph-name="period" horiz-adv-x="233" unicode="&#x2e;"/><glyph d="M300 503v-131h134v-153h-134v-133h-153v133h-130v153h130v131h153z" glyph-name="plus" horiz-adv-x="455" unicode="&#x2b;"/><glyph d="M20 435q0 30 11.5 56t31 46 46 31.5 56.5 11.5h444v-810h-153v230h-291q-30 0-56.5 11.5t-46 31.5-31 46-11.5 56v290zM174 153h282v274h-282v-274z" glyph-name="q" horiz-adv-x="664" unicode="&#x71;"/><glyph d="M507 720q30 0 57-11.5t46.5-31 31-46 11.5-56.5v-166q0-30-11.5-56.5t-31-46.5-46.5-31.5-57-11.5h-225v-69h-154v78q0 30 11.5 56.5t31 46 46 31 56.5 11.5h227v150h-469v153h476zM128 0v153h154v-153h-154z" glyph-name="question" horiz-adv-x="678" unicode="&#x3f;"/><glyph d="M165 0q-30 0-56.5 11.5t-46.5 31.5-31.5 46-11.5 56v167q0 30 11.5 56.5t31.5 46 46.5 31 56.5 11.5h226v75h153v-83q0-30-11.5-56.5t-31.5-46.5-46.5-31.5-56.5-11.5h-226v-150h470v-153h-477zM544 553h-153v153h153v-153z" glyph-name="questiondown" horiz-adv-x="675" unicode="&#xbf;"/><glyph d="M188 505h-152v201h152v-201zM369 505h-152v201h152v-201z" glyph-name="quotedbl" horiz-adv-x="396" unicode="&#x22;"/><glyph d="M45 437v126q0 28 12 52.5t32.5 44.5 48.5 33.5 60 18.5v-275h-153zM260 438v126q0 28 11.5 52.5t32 44.5 48.5 33.5 61 18.5v-275h-153z" glyph-name="quotedblleft" horiz-adv-x="466" unicode="&#x201c;"/><glyph d="M422 706v-125q0-27-12-52t-32.5-44.5-48.5-33-61-19.5v274h154zM207 706v-125q0-27-11.5-52t-32-44.5-48.5-33-61-19.5v274h153z" glyph-name="quotedblright" horiz-adv-x="466" unicode="&#x201d;"/><glyph d="M34 437v126q0 28 11.5 52.5t32 44.5 48.5 33.5 61 18.5v-275h-153z" glyph-name="quoteleft" horiz-adv-x="240" unicode="&#x2018;"/><glyph d="M207 706v-125q0-27-11.5-52t-32-44.5-48.5-33-61-19.5v274h153z" glyph-name="quoteright" horiz-adv-x="238" unicode="&#x2019;"/><glyph d="M212 504h-153v202h153v-202z" glyph-name="quotesingle" horiz-adv-x="251" unicode="&#x27;"/><glyph d="M518 580v-153h-313v-427h-153v435q0 30 11.5 56t31.5 46 46.5 31.5 56.5 11.5h320z" glyph-name="r" horiz-adv-x="526" unicode="&#x72;"/><glyph d="M637 406h-154v21h-282v-60h290q30 0 57-11.5t46.5-31.5 31-46 11.5-56v-77q0-30-11.5-56t-31-46-46.5-31.5-57-11.5h-298q-30 0-56 11.5t-46 31.5-31.5 46-11.5 56v29h153v-21h282v60h-290q-30 0-56 11.5t-46 31.5-31.5 46-11.5 56v77q0 30 11.5 56t31.5 46 46 31.5 56 11.5h298q30 0 57-11.5t46.5-31.5 31-46 11.5-56v-29z" glyph-name="s" horiz-adv-x="686" unicode="&#x73;"/><glyph d="M322 823l27-44 27 44h135l-110-184h-100l-110 184h131zM637 406h-154v21h-282v-60h290q30 0 57-11.5t46.5-31.5 31-46 11.5-56v-77q0-30-11.5-56t-31-46-46.5-31.5-57-11.5h-298q-30 0-56 11.5t-46 31.5-31.5 46-11.5 56v29h153v-21h282v60h-290q-30 0-56 11.5t-46 31.5-31.5 46-11.5 56v77q0 30 11.5 56t31.5 46 46 31.5 56 11.5h298q30 0 57-11.5t46.5-31.5 31-46 11.5-56v-29z" glyph-name="scaron" horiz-adv-x="687" unicode="&#x161;"/><glyph d="M205 426h-154v154h154v-154zM205 142v-126q0-27-11.5-52t-32-44.5-48.5-33-61-19.5v275h153z" glyph-name="semicolon" horiz-adv-x="266" unicode="&#x3b;"/><glyph d="M456 721q30 0 56.5-11.5t46-31 31-46 11.5-56.5v-576h-153v568h-445v153h453z" glyph-name="seven" horiz-adv-x="660" unicode="&#x37;"/><glyph d="M210 567v-125h408q30 0 56.5-11.5t46.5-31 31.5-46 11.5-56.5v-152q0-30-11.5-56t-31.5-46-46.5-31.5-56.5-11.5h-415q-30 0-56.5 11.5t-46.5 31.5-31.5 46-11.5 56v430q0 30 11.5 56.5t31.5 46 46.5 31 56.5 11.5h452v-153h-445zM210 153h401v135h-401v-135z" glyph-name="six" horiz-adv-x="820" unicode="&#x36;"/><glyph d="M467 720h55v-154l-461-566h-55v155z" glyph-name="slash" horiz-adv-x="521" unicode="&#x2f;"/><glyph d="M526 519v48h-244v-137h302v-153h-302v-124h398v-153h-641v153h90v124h-90v153h90v145q0 30 11.5 56.5t31.5 46 46 31 56 11.5h261q30 0 56.5-11.5t46-31 31-46 11.5-56.5v-56h-154z" glyph-name="sterling" horiz-adv-x="734" unicode="&#xa3;"/><glyph d="M206 427v-274h215v-153h-222q-30 0-57 11.5t-46.5 31.5-31 46-11.5 56v607h153v-172h215v-153h-215z" glyph-name="t" horiz-adv-x="451" unicode="&#x74;"/><glyph d="M733 431q0-25-6-46 15-18 24-41.5t9-49.5v-149q0-30-11.5-56t-31-46-46-31.5-56.5-11.5h-416q-30 0-56.5 11.5t-46.5 31.5-31.5 46-11.5 56v56h153v-48h401v133h-436v153h409v128h-374v-56h-153v64q0 30 11.5 56.5t31.5 46 46.5 31 56.5 11.5h389q30 0 56.5-11.5t46-31 31-46 11.5-56.5v-144z" glyph-name="three" horiz-adv-x="826" unicode="&#x33;"/><glyph d="M302 866q17 0 39.5 7.5t56.5 29.5v-126q-23-10-48-18t-51-8q-27 0-50 9.5t-44.5 21.5-42.5 21.5-44 9.5h-11-13.5t-17.5-3-23-10.5-30-22.5v124q23 9 47.5 18t47.5 9q26 0 48.5-8.5t44-19 43.5-21 48-13.5z" glyph-name="tilde" horiz-adv-x="403" unicode="&#x2dc;"/><glyph d="M618 720q30 0 56.5-11.5t46.5-31 31.5-46 11.5-56.5v-159q0-30-11.5-56.5t-31.5-46.5-46.5-31.5-56.5-11.5h-408v-117h554v-153h-707v279q0 30 11.5 56.5t31.5 46 46.5 31 56.5 11.5h408v143h-401v-58h-153v66q0 30 11.5 56.5t31.5 46 46.5 31 56.5 11.5h415z" glyph-name="two" horiz-adv-x="830" unicode="&#x32;"/><glyph d="M641 580v-435q0-30-11.5-56t-31-46-46-31.5-56.5-11.5h-298q-30 0-56.5 11.5t-46 31.5-31 46-11.5 56v435h153v-427h282v427h153z" glyph-name="u" horiz-adv-x="695" unicode="&#x75;"/><glyph d="M641 580v-435q0-30-11.5-56t-31-46-46-31.5-56.5-11.5h-298q-30 0-56.5 11.5t-46 31.5-31 46-11.5 56v435h153v-427h282v427h153zM324 843h157l-51-203h-157z" glyph-name="uacute" horiz-adv-x="695" unicode="&#xfa;"/><glyph d="M641 580v-435q0-30-11.5-56t-31-46-46-31.5-56.5-11.5h-298q-30 0-56.5 11.5t-46 31.5-31 46-11.5 56v435h153v-427h282v427h153zM185 640l110 184h100l110-184h-134l-28 44-25-44h-133z" glyph-name="ucircumflex" horiz-adv-x="695" unicode="&#xfb;"/><glyph d="M641 580v-435q0-30-11.5-56t-31-46-46-31.5-56.5-11.5h-298q-30 0-56.5 11.5t-46 31.5-31 46-11.5 56v435h153v-427h282v427h153zM545 639h-154v154h154v-154zM331 639h-153v154h153v-154z" glyph-name="udieresis" horiz-adv-x="695" unicode="&#xfc;"/><glyph d="M641 580v-435q0-30-11.5-56t-31-46-46-31.5-56.5-11.5h-298q-30 0-56.5 11.5t-46 31.5-31 46-11.5 56v435h153v-427h282v427h153zM441 640h-157l-51 203h157z" glyph-name="ugrave" horiz-adv-x="695" unicode="&#xf9;"/><glyph d="M761-155h-707v153h707v-153z" glyph-name="underscore" unicode="&#x5f;"/><glyph d="M791 580l-320-580h-131l-319 580h176l209-385 209 385h176z" glyph-name="v" horiz-adv-x="790" unicode="&#x76;"/><glyph d="M1019 580l-218-580h-116l-157 346-150-346h-115l-228 580h162l125-301 43 100q21 49 44.5 101t43.5 100h148l140-305q29 75 59 153.5t57 151.5h162z" glyph-name="w" horiz-adv-x="1053" unicode="&#x77;"/><glyph d="M644 580v-50l-200-235q27-34 55-67.5t55-66.5l90-111v-50h-157l-142 174-142-174h-157v50l200 245-200 235v50h157l142-168q35 41 71.5 84.5t69.5 83.5h158z" glyph-name="x" horiz-adv-x="692" unicode="&#x78;"/><glyph d="M631-63q0-30-11.5-56.5t-31-46-46-31-56.5-11.5h-352v154h344v54h-290q-30 0-56.5 11.5t-46.5 31.5-31.5 46-11.5 56v433h153v-425h283v425h153v-641z" glyph-name="y" horiz-adv-x="685" unicode="&#x79;"/><glyph d="M631-63q0-30-11.5-56.5t-31-46-46-31-56.5-11.5h-352v154h344v54h-290q-30 0-56.5 11.5t-46.5 31.5-31.5 46-11.5 56v433h153v-425h283v425h153v-641zM321 843h157l-51-203h-157z" glyph-name="yacute" horiz-adv-x="688" unicode="&#xfd;"/><glyph d="M631-63q0-30-11.5-56.5t-31-46-46-31-56.5-11.5h-352v154h344v54h-290q-30 0-56.5 11.5t-46.5 31.5-31.5 46-11.5 56v433h153v-425h283v425h153v-641zM542 641h-154v154h154v-154zM328 641h-153v154h153v-154z" glyph-name="ydieresis" horiz-adv-x="688" unicode="&#xff;"/><glyph d="M54 580h588v-157l-349-270h349v-153h-588v157l349 270h-349v153z" glyph-name="z" horiz-adv-x="698" unicode="&#x7a;"/><glyph d="M328 836l27-44 27 44h135l-110-184h-100l-110 184h131zM54 580h588v-157l-349-270h349v-153h-588v157l349 270h-349v153z" glyph-name="zcaron" horiz-adv-x="698" unicode="&#x17e;"/><glyph d="M618 720q30 0 56.5-12t46.5-32.5 31.5-47.5 11.5-57v-416q0-30-11.5-57.5t-31.5-49.5-46.5-35-56.5-13h-415q-30 0-56.5 13t-46.5 35-31.5 49.5-11.5 57.5v416q0 30 11.5 57t31.5 47.5 46.5 32.5 56.5 12h415zM611 163v268l-319-268h319zM210 563v-268l319 268h-319z" glyph-name="zero" horiz-adv-x="834" unicode="&#x30;"/><glyph d="M629 720q31 0 58-11.5t47-31.5 32-47 12-58v-572h-157v232h-408v-232h-155v572q0 31 11.5 58t31.5 47 47 31.5 58 11.5h423zM621 388v176h-408v-176h408z" glyph-name="A" horiz-adv-x="836" unicode="&#x41;"/></font>
</defs>
</svg>
